# xmcd CD database file
#
# Track frame offsets:
#	183
#	18560
#	35070
#	55800
#	73110
#	90940
#	104000
#	120260
#	136585
#
# Disc length: 2073 seconds
#
# Revision: 0
# Processed by: cddbd v1.5.2PL0 Copyright (c) Steve Scherf et al.
# Submitted via: CDex 1.51
#
DISCID=71081709
DTITLE=Bill Deraime - La porte
DYEAR=1991
DGENRE=Blues
TTITLE0=Rien ne pourra
TTITLE1=Je pars
TTITLE2=La citadelle
TTITLE3=Energie positive
TTITLE4=Que cherches-tu ailleurs... ?
TTITLE5=La question de Jean-Baptiste
TTITLE6=La porte
TTITLE7=Je crois en la vie
TTITLE8=L'esprit de joie
EXTD=YEAR: 1991
EXTT0=
EXTT1=
EXTT2=
EXTT3=
EXTT4=
EXTT5=
EXTT6=
EXTT7=
EXTT8=
PLAYORDER=
